<svg width="208" height="52" viewBox="0 0 208 52" fill="none" xmlns="http://www.w3.org/2000/svg">
<g id="Group 1519">
<path id="Vector" fill-rule="evenodd" clip-rule="evenodd" d="M0 0V51.3407C0 51.3407 23.6092 53.4643 30.2298 35.2265C28.481 36.9753 26.1076 37.9747 23.6092 38.2245H15.8644V12.9913H23.2345C24.9833 13.2412 26.7322 13.9907 28.1062 15.1149H47.5932C47.5932 15.1149 44.3454 1.37408 28.3561 0.124917L0 0Z" fill="#127DC2"/>
<path id="Vector_2" fill-rule="evenodd" clip-rule="evenodd" d="M14.8652 51.0911C14.8652 51.0911 33.1031 45.8446 32.7283 29.7303H24.1091V16.739H56.7123V29.8553H48.7176C47.5934 40.9728 43.4711 52.5901 14.8652 51.0911Z" fill="#F48636"/>
<path id="Vector_3" d="M186.875 18.1129C186.875 24.8584 192.372 30.2298 198.992 30.3548C198.992 30.3548 198.992 30.3548 199.117 30.3548C202.24 30.3548 205.113 29.2305 207.362 27.1069C207.611 26.8571 207.611 26.4823 207.362 26.2325L205.238 24.1089C204.988 23.8591 204.613 23.8591 204.364 24.1089C202.865 25.3581 201.116 25.9827 199.242 26.1076C194.87 25.9827 191.497 22.2352 191.747 17.988C191.872 13.8658 195.245 10.6179 199.242 10.493C201.116 10.493 202.99 11.2425 204.489 12.4917C204.613 12.7415 204.988 12.7415 205.238 12.6166C205.238 12.6166 205.363 12.6166 205.363 12.4917L207.362 9.99334C207.611 9.74351 207.611 9.36876 207.362 9.11893C205.113 6.99534 202.24 5.87109 199.117 5.99601C192.372 5.87109 186.875 11.2425 186.875 18.1129ZM180.005 29.3554C180.005 29.7302 180.255 29.98 180.629 29.98H183.752C184.127 29.98 184.377 29.7302 184.377 29.3554V6.87043C184.377 6.49568 184.127 6.24584 183.752 6.24584H180.505C180.13 6.24584 179.88 6.49568 179.88 6.87043L180.005 29.3554ZM150.774 29.2305C150.649 29.6053 150.899 29.8551 151.274 29.98C151.399 29.98 151.399 29.98 151.524 29.98H154.522C154.772 29.98 155.022 29.7302 155.146 29.4803L157.145 16.6139H157.27L163.266 29.98C163.391 30.2298 163.641 30.3548 163.891 30.3548H164.515C164.765 30.3548 165.015 30.2298 165.14 29.98L171.136 16.6139H171.261L173.259 29.4803C173.384 29.7302 173.634 29.98 173.884 29.98H177.007C177.382 29.98 177.631 29.7302 177.631 29.4803C177.631 29.3554 177.631 29.3554 177.631 29.2305L173.634 6.49568C173.634 6.24584 173.384 5.99601 173.01 5.99601H172.51C172.26 5.99601 172.01 6.12093 171.885 6.37076L164.39 22.3601H164.265L156.77 6.37076C156.645 6.12093 156.396 5.99601 156.146 5.99601H155.646C155.396 5.99601 155.022 6.24584 155.022 6.49568L150.774 29.2305ZM136.659 21.8604L140.032 14.3654H140.156L143.529 21.8604H136.659ZM129.414 29.8551H132.412C132.786 29.8551 133.286 29.6053 133.411 29.2305L135.035 25.6079H145.153L146.777 29.2305C146.902 29.6053 147.277 29.98 147.776 29.8551H150.774C151.149 29.8551 151.399 29.6053 151.399 29.3554C151.399 29.2305 151.399 29.1056 151.274 28.9807L140.906 6.24584C140.781 5.99601 140.531 5.87109 140.281 5.87109H139.907C139.657 5.87109 139.407 5.99601 139.282 6.24584L128.789 29.1056C128.664 29.3554 128.789 29.7302 129.039 29.8551C129.164 29.8551 129.289 29.98 129.414 29.8551ZM107.678 29.2305C107.678 29.6053 107.928 29.8551 108.303 29.8551H111.426C111.8 29.8551 112.05 29.6053 112.05 29.2305V14.7402L126.166 30.3548H127.04C127.415 30.3548 127.665 30.1049 127.665 29.7302V6.87043C127.665 6.49568 127.415 6.24584 127.04 6.24584H123.917C123.543 6.24584 123.293 6.49568 123.293 6.87043V20.8611L109.177 5.87109H108.303C107.928 5.87109 107.678 6.12093 107.678 6.49568V29.2305ZM94.5619 29.2305C94.5619 29.6053 94.8117 29.8551 95.1864 29.8551H98.3094C98.6841 29.8551 98.9339 29.6053 98.9339 29.2305V18.3628L106.804 7.12026C107.054 6.87043 106.929 6.49568 106.679 6.24584C106.429 6.24584 106.304 6.24584 106.179 6.24584H102.681C102.432 6.24584 102.307 6.37076 102.182 6.49568L96.8104 14.3654L91.4389 6.49568C91.1891 6.37076 90.9393 6.24584 90.8144 6.24584H87.3167C86.942 6.24584 86.6921 6.49568 86.6921 6.87043C86.6921 6.99534 86.6921 7.12026 86.817 7.24518L94.5619 18.6126V29.2305ZM71.827 25.7328V10.2432H75.6995C79.9466 10.2432 83.4443 13.7408 83.4443 17.988C83.4443 22.2352 79.9466 25.7328 75.6995 25.7328H71.827ZM67.455 29.2305C67.455 29.6053 67.7048 29.8551 68.0795 29.8551H76.0742C82.5699 29.8551 87.9413 24.4837 87.9413 17.988C87.9413 11.4923 82.5699 6.12093 76.0742 6.12093H68.0795C67.7048 6.24584 67.455 6.49568 67.455 6.87043V29.2305Z" fill="#127DC2"/>
<path id="Vector_4" d="M201.99 47.5932C201.99 47.7182 202.115 47.968 202.365 47.968H203.989C204.114 47.968 204.364 47.8431 204.364 47.5932V38.0996H206.987C207.112 38.0996 207.362 37.9747 207.362 37.7248V36.3507C207.362 36.2258 207.237 35.976 206.987 35.976H199.617C199.492 35.976 199.242 36.1009 199.242 36.3507V37.7248C199.242 37.8497 199.367 38.0996 199.617 38.0996H202.24L201.99 47.5932ZM187.625 47.5932C187.625 47.7182 187.75 47.968 188 47.968H189.624C189.749 47.968 189.873 47.8431 189.998 47.5932V43.3461H194.246C194.37 43.3461 194.62 43.2212 194.62 42.9713V41.5972C194.62 41.4723 194.495 41.2225 194.246 41.2225H189.998V37.9747H194.995C195.12 37.9747 195.37 37.8497 195.37 37.5999V36.2258C195.37 36.1009 195.245 35.8511 194.995 35.8511H188.125C188 35.8511 187.75 35.976 187.75 36.2258L187.625 47.5932ZM172.135 42.0969C172.135 39.9733 173.884 38.2245 176.008 38.2245C178.131 38.2245 179.88 39.9733 179.88 42.0969C179.88 44.2205 178.131 45.9693 176.008 45.9693C173.759 45.9693 172.135 44.2205 172.135 42.0969ZM169.887 42.0969C169.887 45.4697 172.635 48.2178 176.008 48.2178C179.38 48.2178 182.129 45.4697 182.129 42.0969C182.129 38.7242 179.38 35.976 176.008 35.976C172.635 35.976 169.887 38.5992 169.887 42.0969C169.887 41.972 169.887 41.972 169.887 42.0969ZM157.645 46.8437C158.644 47.7182 160.018 48.2178 161.392 48.2178C163.391 48.3427 165.14 46.9687 165.265 44.97V44.8451C165.265 42.5966 163.391 41.7222 161.767 40.9727C160.393 40.473 159.769 39.8484 159.769 39.0989C159.769 38.3494 160.518 37.8497 161.268 37.8497C162.142 37.9747 162.891 38.3494 163.641 38.8491C163.891 38.974 164.141 38.8491 164.266 38.5992L164.89 37.5999C165.015 37.475 165.015 37.2252 164.765 37.1002C163.766 36.3507 162.642 35.976 161.392 35.976C158.769 35.976 157.645 37.7248 157.645 39.2238C157.645 41.2225 159.269 42.2218 160.893 42.8464C162.517 43.471 163.016 43.9707 163.016 44.8451C162.891 45.5946 162.267 46.2192 161.517 46.0942C160.643 45.9693 159.769 45.5946 158.894 45.0949C158.769 44.97 158.519 44.97 158.394 45.2198L157.77 46.2192C157.52 46.469 157.52 46.5939 157.645 46.8437ZM142.78 42.0969C142.78 39.9733 144.529 38.2245 146.652 38.2245C148.776 38.2245 150.525 39.9733 150.525 42.0969C150.525 44.2205 148.776 45.9693 146.652 45.9693C144.529 45.9693 142.78 44.2205 142.78 42.0969ZM140.531 42.0969C140.531 45.4697 143.28 48.2178 146.652 48.2178C150.025 48.2178 152.773 45.4697 152.773 42.0969C152.773 38.7242 150.025 35.976 146.652 35.976C143.28 35.976 140.531 38.5992 140.531 42.0969C140.531 41.972 140.531 41.972 140.531 42.0969ZM124.917 47.5932C124.917 47.7182 125.042 47.8431 125.292 47.968H126.915C127.04 47.968 127.29 47.8431 127.29 47.5932V40.3481L134.41 48.0929H134.785C134.91 48.0929 135.16 47.968 135.16 47.8431V36.3507C135.16 36.2258 135.035 35.976 134.785 35.976H133.286C133.161 35.976 132.911 36.1009 132.911 36.3507V43.3461L125.916 35.8511H125.541C125.416 35.8511 125.292 35.976 125.167 36.1009L124.917 47.5932ZM108.678 47.5932C108.678 47.7182 108.803 47.968 109.052 47.968H110.676C110.801 47.968 111.051 47.8431 111.051 47.5932V42.8464H116.547V47.5932C116.547 47.7182 116.672 47.968 116.922 47.968H118.546C118.671 47.968 118.921 47.8431 118.921 47.5932V36.3507C118.921 36.2258 118.796 35.976 118.546 35.976H116.922C116.797 35.976 116.547 36.1009 116.547 36.2258V40.7228H111.051V36.3507C111.051 36.2258 110.926 35.976 110.676 35.976H109.052C108.927 35.976 108.678 36.1009 108.678 36.3507V47.5932ZM92.9382 42.0969C92.9382 45.4697 95.6863 48.2178 98.9342 48.2178C100.433 48.2178 101.932 47.5932 103.056 46.5939C103.181 46.469 103.181 46.2192 103.056 46.0942L102.057 44.97C101.932 44.8451 101.807 44.8451 101.682 44.97C100.933 45.5946 100.058 45.9693 99.0591 45.9693C96.9355 45.8444 95.1867 43.9707 95.3116 41.8471C95.4365 39.8484 97.0604 38.2245 99.0591 38.0996C100.058 38.0996 100.933 38.4743 101.682 39.0989C101.807 39.2238 101.932 39.2238 102.057 39.0989L103.056 38.0996C103.181 37.9747 103.181 37.7248 103.056 37.5999C101.932 36.6006 100.433 35.976 98.9342 35.976C95.6863 35.976 92.9382 38.5992 92.9382 42.0969C92.9382 42.0969 92.9382 41.972 92.9382 42.0969ZM80.5714 47.5932C80.5714 47.7182 80.6963 47.968 80.9462 47.968H87.8166C87.9415 47.968 88.1913 47.8431 88.1913 47.5932V46.2192C88.1913 46.0942 88.0664 45.8444 87.8166 45.8444H82.8199V42.8464H86.9422C87.0671 42.8464 87.3169 42.7215 87.3169 42.5966V41.2225C87.3169 41.0976 87.192 40.8477 86.9422 40.8477H82.8199V38.0996H87.8166C87.9415 38.0996 88.1913 37.9747 88.1913 37.7248V36.3507C88.1913 36.2258 88.0664 35.976 87.8166 35.976H80.9462C80.8212 35.976 80.5714 36.1009 80.5714 36.3507V47.5932ZM70.4532 47.5932C70.4532 47.7182 70.5781 47.8431 70.703 47.8431H72.3269C72.4518 47.8431 72.7017 47.7182 72.7017 47.4683V37.9747H75.3249C75.4498 37.9747 75.6997 37.8497 75.6997 37.5999V36.2258C75.6997 36.1009 75.5747 35.8511 75.3249 35.8511H67.9548C67.8299 35.8511 67.5801 35.976 67.5801 36.2258V37.5999C67.5801 37.7248 67.705 37.9747 67.9548 37.9747H70.5781L70.4532 47.5932Z" fill="#F48636"/>
</g>
</svg>
